<?xml version="1.0" standalone="no"?>
<!DOCTYPE svg PUBLIC "-//W3C//DTD SVG 20010904//EN"
 "http://www.w3.org/TR/2001/REC-SVG-20010904/DTD/svg10.dtd">
<svg version="1.0" xmlns="http://www.w3.org/2000/svg"
 width="894.000000pt" height="894.000000pt" viewBox="0 0 894.000000 894.000000"
 preserveAspectRatio="xMidYMid meet">
<metadata>
Created by potrace 1.11, written by Peter Selinger 2001-2013
</metadata>
<g transform="translate(0.000000,894.000000) scale(0.100000,-0.100000)"
fill="#000000" stroke="none">
<path d="M4201 8684 c-1 -6 -13 -11 -28 -11 -16 0 -59 -3 -98 -7 -38 -5 -86
-9 -105 -11 -19 -2 -35 -4 -35 -5 0 -1 -11 -3 -25 -5 -49 -5 -133 -17 -154
-21 -12 -3 -32 -7 -46 -10 -14 -2 -36 -7 -50 -9 -14 -3 -36 -8 -50 -10 -46 -9
-116 -25 -172 -40 -10 -3 -26 -7 -35 -9 -78 -19 -181 -50 -192 -60 -8 -6 -17
-10 -20 -9 -10 4 -85 -18 -98 -29 -7 -6 -13 -7 -13 -3 0 4 -6 2 -13 -4 -8 -6
-17 -8 -20 -4 -4 3 -7 1 -7 -5 0 -7 -3 -11 -7 -10 -18 4 -73 -14 -73 -24 0 -6
-3 -8 -7 -5 -3 4 -12 2 -20 -4 -7 -6 -13 -8 -13 -5 0 4 -12 0 -27 -8 -24 -12
-48 -22 -73 -31 -3 -1 -36 -17 -75 -35 -38 -18 -73 -33 -77 -32 -5 1 -8 -3 -8
-9 0 -5 -4 -8 -9 -4 -5 3 -16 -1 -24 -9 -8 -8 -17 -12 -21 -9 -3 4 -6 1 -6 -5
0 -7 -7 -12 -16 -12 -9 0 -28 -8 -42 -18 -15 -10 -42 -24 -59 -31 -18 -8 -33
-17 -33 -22 0 -5 -5 -9 -12 -9 -13 0 -142 -75 -170 -98 -10 -8 -18 -11 -18 -7
0 5 -8 0 -18 -11 -10 -10 -35 -28 -55 -39 -20 -11 -37 -23 -37 -27 0 -5 -7 -8
-15 -8 -8 0 -15 -4 -15 -10 0 -5 -7 -10 -15 -10 -8 0 -15 -4 -15 -10 0 -5 -5
-10 -10 -10 -11 0 -25 -10 -65 -48 -14 -13 -25 -19 -25 -15 0 4 -7 -1 -15 -11
-8 -11 -15 -17 -15 -13 0 4 -13 -6 -29 -22 -16 -16 -32 -27 -35 -24 -3 3 -8
-2 -12 -11 -3 -9 -11 -16 -16 -16 -5 0 -22 -11 -36 -25 -50 -46 -87 -75 -95
-75 -5 0 -5 -4 -2 -10 3 -5 2 -10 -3 -10 -25 0 -382 -356 -382 -381 0 -6 -4
-7 -10 -4 -5 3 -10 1 -10 -5 0 -6 -10 -21 -22 -34 -13 -12 -34 -37 -48 -55
-14 -18 -33 -42 -43 -54 -11 -12 -40 -50 -65 -84 -25 -35 -50 -63 -55 -63 -4
0 -6 -4 -3 -8 3 -5 -2 -18 -12 -28 -10 -10 -44 -59 -76 -109 -32 -49 -67 -101
-76 -115 -9 -14 -34 -56 -55 -95 -21 -38 -41 -72 -44 -75 -3 -3 -24 -41 -46
-85 -21 -44 -42 -82 -45 -85 -3 -3 -7 -14 -8 -25 -2 -11 -7 -22 -12 -25 -7 -5
-50 -96 -54 -115 -1 -5 -7 -20 -14 -31 -6 -12 -8 -24 -5 -28 3 -3 1 -6 -5 -6
-6 0 -13 -13 -17 -30 -4 -16 -11 -30 -16 -30 -6 0 -8 -4 -5 -8 3 -5 -2 -22
-10 -38 -9 -16 -16 -31 -16 -34 -1 -12 -35 -112 -48 -145 -11 -27 -40 -117
-44 -141 -2 -10 -9 -31 -15 -46 -6 -16 -8 -28 -5 -28 2 0 0 -8 -5 -18 -6 -11
-12 -30 -15 -43 -2 -13 -14 -64 -25 -114 -27 -110 -29 -122 -36 -171 -4 -21
-9 -47 -11 -57 -3 -10 -8 -35 -10 -55 -2 -20 -6 -48 -9 -62 -4 -22 -10 -75
-21 -180 -9 -86 -15 -171 -17 -247 -1 -46 -4 -83 -7 -83 -12 0 8 -463 24 -550
2 -14 7 -47 10 -75 6 -49 13 -90 16 -90 1 0 3 -16 5 -35 4 -47 15 -111 22
-135 4 -11 8 -27 9 -35 4 -25 12 -64 18 -90 20 -88 24 -103 26 -110 1 -3 2 -9
1 -14 -1 -4 3 -14 10 -22 6 -7 8 -18 4 -24 -3 -5 -1 -10 6 -10 7 0 10 -3 7 -6
-4 -3 -2 -20 4 -37 5 -18 10 -36 11 -42 2 -5 6 -16 11 -23 4 -7 5 -16 2 -19
-3 -3 -1 -11 4 -18 5 -6 12 -22 14 -36 3 -13 5 -25 7 -26 1 -2 2 -6 4 -10 1
-5 5 -17 9 -28 16 -42 19 -50 22 -65 2 -8 7 -23 12 -35 22 -45 57 -140 54
-147 -1 -5 3 -8 8 -8 6 0 10 -6 10 -13 0 -7 9 -32 20 -55 11 -22 20 -46 20
-52 0 -5 5 -10 12 -10 6 0 8 -3 5 -7 -4 -3 -2 -12 4 -20 6 -7 8 -13 4 -13 -5
0 0 -9 10 -20 10 -11 14 -20 10 -20 -4 0 0 -9 10 -20 10 -11 14 -20 10 -20 -4
0 -1 -8 7 -17 9 -10 19 -29 23 -43 4 -14 10 -27 14 -30 6 -5 56 -96 76 -137 5
-13 14 -23 18 -23 5 0 5 -4 2 -10 -3 -5 -1 -10 4 -10 6 0 11 -7 11 -15 0 -8 5
-15 10 -15 6 0 10 -5 10 -11 0 -6 14 -30 30 -54 17 -24 30 -48 30 -54 0 -6 5
-11 10 -11 6 0 10 -7 10 -15 0 -8 5 -15 10 -15 6 0 10 -5 10 -10 0 -6 5 -16
10 -23 39 -46 50 -61 50 -68 0 -4 6 -14 13 -21 7 -7 41 -51 77 -98 35 -47 68
-89 72 -95 33 -40 55 -67 96 -114 58 -67 368 -381 376 -381 4 0 21 -14 39 -31
17 -17 58 -50 89 -74 31 -23 54 -45 51 -49 -4 -3 -1 -6 5 -6 12 0 38 -19 73
-52 9 -9 26 -19 37 -22 11 -4 23 -14 26 -22 3 -8 10 -12 16 -9 5 3 10 2 10 -3
0 -6 16 -19 35 -31 20 -11 41 -25 48 -31 42 -38 334 -213 354 -213 7 0 15 -7
17 -14 3 -8 10 -11 16 -8 5 3 10 1 10 -6 0 -7 3 -10 6 -6 4 3 13 -1 21 -9 8
-8 18 -12 23 -9 5 3 11 1 15 -4 6 -10 100 -57 125 -63 8 -2 21 -9 28 -16 8 -7
18 -10 23 -7 5 4 9 1 9 -4 0 -6 5 -11 12 -11 6 0 30 -9 52 -19 23 -10 79 -33
126 -51 47 -18 94 -36 105 -40 20 -9 156 -54 165 -55 3 0 37 -10 75 -22 39
-12 86 -25 105 -29 48 -11 50 -11 53 -14 1 -1 9 -3 17 -5 8 -1 51 -11 95 -20
44 -10 88 -18 98 -19 9 0 17 -4 17 -9 0 -4 4 -6 9 -3 5 4 31 2 58 -3 68 -14
119 -21 193 -28 36 -3 67 -8 70 -12 9 -11 30 -11 30 0 0 5 5 7 11 3 14 -8 54
-13 147 -15 40 -2 75 -6 78 -11 3 -4 13 -5 22 0 15 6 38 7 67 2 11 -2 190 -2
190 0 0 1 17 3 38 4 21 1 37 -3 37 -8 0 -7 3 -8 8 -1 4 6 21 11 37 11 60 2
211 14 240 19 17 2 50 7 75 9 25 3 56 7 70 10 14 3 45 8 70 11 49 6 68 9 145
25 28 6 59 12 70 15 11 2 20 4 20 5 0 1 11 3 25 5 32 6 65 13 65 15 0 1 11 4
25 7 39 7 55 11 55 13 0 1 9 4 20 6 11 3 25 6 30 7 6 1 16 6 23 10 6 5 16 6
21 2 5 -3 12 -1 15 4 3 4 20 12 38 16 18 4 35 9 38 10 3 1 32 10 65 19 33 10
69 23 80 29 11 6 25 12 31 13 6 1 52 18 101 38 50 20 95 36 101 36 6 0 12 5
14 10 2 6 13 12 26 13 12 0 22 5 22 9 0 4 4 8 10 8 19 0 260 122 260 132 0 5
5 8 12 6 7 -3 28 6 47 19 18 13 40 23 47 23 8 0 14 3 14 8 0 4 17 16 38 27 20
11 51 30 68 42 17 13 36 23 42 23 6 0 12 3 14 8 4 9 86 63 94 61 4 0 10 3 13
8 3 5 27 24 54 43 26 18 47 37 47 42 0 5 4 7 9 4 4 -3 19 6 31 19 13 14 27 25
32 25 8 0 49 33 90 72 10 10 20 18 23 18 6 0 59 46 102 87 13 13 26 23 29 23
9 0 302 298 365 370 85 98 189 228 189 236 0 4 7 14 15 23 48 53 54 61 47 61
-4 0 -2 4 3 8 6 4 38 48 70 97 33 50 65 93 70 97 6 4 6 8 2 8 -5 0 -1 7 7 16
9 8 14 19 11 24 -3 5 -2 10 3 12 14 6 52 66 52 82 0 8 6 19 13 23 6 4 21 26
32 48 10 22 28 52 38 68 10 15 15 27 12 27 -3 0 3 13 15 30 12 16 18 30 13 30
-4 0 0 7 10 14 10 8 18 16 17 18 -5 10 14 58 23 58 6 0 7 3 4 7 -4 3 -1 16 6
27 11 18 70 152 73 166 0 3 8 21 16 40 9 19 14 38 12 42 -3 5 0 8 7 8 7 0 10
3 6 6 -3 3 3 25 13 49 10 24 16 46 13 49 -4 3 -2 6 3 6 6 0 16 24 23 53 8 28
16 57 20 62 3 6 6 15 7 20 1 6 13 51 27 100 14 50 29 105 32 124 3 19 10 42
16 52 5 11 8 19 5 19 -3 0 0 15 5 33 5 17 11 43 14 57 3 14 7 34 10 45 2 11 9
38 14 60 18 72 23 100 24 133 1 17 4 32 7 32 3 0 6 10 7 23 1 30 11 132 13
132 14 0 10 640 -4 663 -4 7 -2 12 4 12 6 0 8 5 4 12 -4 6 -9 32 -10 57 -9
131 -14 174 -40 336 -2 17 -5 37 -5 45 -1 8 -5 32 -11 53 -5 21 -11 52 -13 70
-3 18 -13 68 -24 112 -11 44 -17 83 -15 87 3 5 0 8 -6 8 -7 0 -10 7 -7 15 4 8
2 17 -2 19 -7 5 -16 44 -22 91 0 6 -5 15 -11 22 -5 7 -12 27 -15 45 -3 18 -9
38 -14 44 -5 6 -6 14 -2 17 3 4 1 7 -5 7 -6 0 -9 9 -7 20 2 11 -1 20 -7 20 -6
0 -8 3 -5 6 3 4 1 16 -5 28 -7 11 -13 26 -14 31 0 6 -5 21 -9 35 -5 14 -7 27
-6 29 2 2 -2 7 -9 11 -6 4 -12 17 -13 28 -1 12 -5 22 -9 22 -4 0 -8 7 -8 15 0
15 -12 44 -70 170 -15 33 -30 70 -34 83 -4 12 -12 22 -17 22 -5 0 -9 9 -9 19
0 11 -7 27 -16 35 -8 9 -13 16 -9 16 8 0 -27 63 -40 72 -5 4 -6 8 -2 8 5 0 0
12 -11 28 -17 24 -32 51 -66 119 -6 13 -14 23 -18 23 -5 0 -8 5 -8 10 0 12
-111 184 -122 188 -5 2 -8 9 -8 16 0 7 -11 25 -25 40 -13 14 -22 26 -19 26 3
0 -1 7 -8 15 -30 33 -38 45 -38 54 0 5 -4 11 -8 13 -4 2 -33 36 -64 76 -69 88
-132 162 -218 255 -74 79 -241 247 -247 247 -2 0 -14 10 -27 23 -12 12 -44 40
-70 62 -26 22 -57 49 -70 60 -12 11 -37 31 -56 45 -18 14 -44 35 -59 47 -14
13 -29 23 -32 23 -3 0 -19 11 -35 25 -16 15 -41 33 -56 43 -16 9 -28 20 -28
24 0 4 -5 8 -10 8 -11 0 -131 79 -141 93 -3 5 -10 9 -15 9 -5 1 -18 6 -29 13
-80 49 -181 106 -240 136 -38 19 -72 37 -75 41 -5 6 -53 28 -70 33 -3 0 -19 9
-37 18 -18 9 -39 17 -48 17 -9 0 -13 5 -10 10 4 6 -5 10 -19 10 -14 0 -26 4
-26 9 0 5 -12 12 -27 16 -16 3 -41 12 -58 20 -77 33 -192 75 -207 75 -9 0 -19
4 -22 9 -4 7 -67 28 -106 35 -3 1 -10 4 -16 8 -6 4 -21 9 -35 12 -51 9 -84 19
-96 29 -7 5 -13 7 -13 4 0 -3 -16 -1 -36 5 -20 5 -44 11 -53 13 -9 2 -38 9
-66 15 -27 7 -59 14 -70 16 -28 4 -101 19 -145 28 -41 9 -103 18 -147 21 -23
2 -46 6 -52 9 -6 4 -11 5 -11 2 0 -3 -12 -1 -26 4 -18 7 -23 7 -18 -2 4 -7 3
-8 -5 -4 -12 8 -62 14 -136 17 -22 1 -46 6 -52 12 -9 6 -13 6 -13 -2 0 -6 -10
-9 -22 -7 -13 3 -23 5 -23 6 0 5 -368 4 -417 0 -36 -4 -59 -2 -62 5 -3 7 -5 6
-5 -1z"/>
</g>
</svg>
